<svg viewBox="0 0 147 36" fill="none" xmlns="http://www.w3.org/2000/svg">
<rect x="0.375" y="0.375" width="35.25" height="35.25" rx="8.625" fill="white"/>
<rect x="0.375" y="0.375" width="35.25" height="35.25" rx="8.625" stroke="#ECECEC" stroke-width="0.75"/>
<path d="M6 5H13.2L21.4 16.3L17.8 21.1L6 5Z" fill="url(#paint0_linear_x_banner)"/>
<path d="M22.8 5H30L18.2 21.1L14.6 16.3L22.8 5Z" fill="url(#paint1_linear_x_banner)"/>
<path d="M14.6 19.7L18.2 14.9L30 31H22.8L14.6 19.7Z" fill="url(#paint2_linear_x_banner)"/>
<path d="M17.8 14.9L21.4 19.7L13.2 31H6L17.8 14.9Z" fill="url(#paint3_linear_x_banner)"/>
<path d="M18 11.9L24.2 18L18 24.1L11.8 18L18 11.9Z" fill="url(#paint4_linear_x_banner)"/>
<text x="46" y="22.6" fill="#111827" font-family="Inter, -apple-system, BlinkMacSystemFont, 'Segoe UI', sans-serif" font-size="17" font-weight="700" letter-spacing="0.2">XunGuAI</text>
<defs>
<linearGradient id="paint0_linear_x_banner" x1="18" y1="5" x2="18" y2="31" gradientUnits="userSpaceOnUse">
<stop stop-color="#326DFF"/>
<stop offset="1" stop-color="#8EAEFF"/>
</linearGradient>
<linearGradient id="paint1_linear_x_banner" x1="18" y1="5" x2="18" y2="31" gradientUnits="userSpaceOnUse">
<stop stop-color="#326DFF"/>
<stop offset="1" stop-color="#8EAEFF"/>
</linearGradient>
<linearGradient id="paint2_linear_x_banner" x1="18" y1="5" x2="18" y2="31" gradientUnits="userSpaceOnUse">
<stop stop-color="#326DFF"/>
<stop offset="1" stop-color="#8EAEFF"/>
</linearGradient>
<linearGradient id="paint3_linear_x_banner" x1="18" y1="5" x2="18" y2="31" gradientUnits="userSpaceOnUse">
<stop stop-color="#326DFF"/>
<stop offset="1" stop-color="#8EAEFF"/>
</linearGradient>
<linearGradient id="paint4_linear_x_banner" x1="18" y1="5" x2="18" y2="31" gradientUnits="userSpaceOnUse">
<stop stop-color="#326DFF"/>
<stop offset="1" stop-color="#8EAEFF"/>
</linearGradient>
</defs>
</svg>
